<svg xmlns="http://www.w3.org/2000/svg" viewBox="0 0 150 150"><defs><style>.cls-1{fill:#464292;}.cls-2{fill:#fff;}</style></defs><g id="Capa_2" data-name="Capa 2"><g id="Capa_1-2" data-name="Capa 1"><circle class="cls-1" cx="75" cy="75" r="75"/><path class="cls-2" d="M97.61,41.64h-3.7v-1a2.5,2.5,0,0,0-2.5-2.5H83.72a9.11,9.11,0,0,0-17.44,0H58.59a2.5,2.5,0,0,0-2.5,2.5v1h-3.7A10.23,10.23,0,0,0,42.17,51.86v56.25a10.23,10.23,0,0,0,10.22,10.22H97.61a10.23,10.23,0,0,0,10.22-10.22V51.86A10.23,10.23,0,0,0,97.61,41.64ZM61.09,43.15h7.3a2.5,2.5,0,0,0,2.5-2.45,4.11,4.11,0,0,1,8.22,0,2.5,2.5,0,0,0,2.5,2.45h7.3v5.72a.44.44,0,0,1-.44.44H61.53a.44.44,0,0,1-.44-.44Zm41.74,65a5.22,5.22,0,0,1-5.22,5.22H52.39a5.22,5.22,0,0,1-5.22-5.22V51.86a5.22,5.22,0,0,1,5.22-5.22h3.7v2.23a5.45,5.45,0,0,0,5.44,5.44H88.47a5.45,5.45,0,0,0,5.44-5.44V46.64h3.7a5.22,5.22,0,0,1,5.22,5.22Z"/><path class="cls-2" d="M90.33,64.94H59.64a1.81,1.81,0,1,1,0-3.62H90.33a1.81,1.81,0,1,1,0,3.62Z"/><path class="cls-2" d="M90.33,77.57H59.64a1.81,1.81,0,1,1,0-3.62H90.33a1.81,1.81,0,1,1,0,3.62Z"/><path class="cls-2" d="M76,89.45H59.64a1.81,1.81,0,1,1,0-3.62H76a1.81,1.81,0,0,1,0,3.62Z"/><path class="cls-2" d="M73.29,108.83h0a2,2,0,0,1-1.4-.62L62.24,98.05a2,2,0,1,1,2.87-2.72L73.34,104,95.65,82a2,2,0,1,1,2.78,2.81L74.68,108.26A2,2,0,0,1,73.29,108.83Z"/></g></g></svg>