<?xml version="1.0" encoding="utf-8"?>
<!-- Generator: Adobe Illustrator 21.0.0, SVG Export Plug-In . SVG Version: 6.00 Build 0)  -->
<svg version="1.1" id="Capa_1" xmlns="http://www.w3.org/2000/svg" xmlns:xlink="http://www.w3.org/1999/xlink" x="0px" y="0px"
	 viewBox="0 0 24 24" style="enable-background:new 0 0 24 24;" xml:space="preserve">
<style type="text/css">
	.st0{fill:#F2692A;}
</style>
<g>
	<g>
		<path class="st0" d="M17.1,13.2c0.4,0,0.7-0.1,1-0.4c0.6-0.6,0.6-1.5,0-2L8.8,1.5C8.3,1,7.4,1,6.8,1.5c-0.6,0.6-0.6,1.5,0,2
			l9.2,9.2C16.3,13,16.7,13.2,17.1,13.2z"/>
	</g>
	<g>
		<path class="st0" d="M7.8,22.6c0.4,0,0.7-0.1,1-0.4l9.2-9.2c0.6-0.6,0.6-1.5,0-2c-0.6-0.6-1.5-0.6-2,0l-9.2,9.2
			c-0.6,0.6-0.6,1.5,0,2C7.1,22.5,7.5,22.6,7.8,22.6z"/>
	</g>
</g>
</svg>
