<?xml version="1.0" encoding="utf-8"?>
<!-- Generator: Adobe Illustrator 21.0.0, SVG Export Plug-In . SVG Version: 6.00 Build 0)  -->
<svg version="1.1" id="Capa_1" xmlns="http://www.w3.org/2000/svg" xmlns:xlink="http://www.w3.org/1999/xlink" x="0px" y="0px"
	 viewBox="0 0 24 24" style="enable-background:new 0 0 24 24;" xml:space="preserve">
<style type="text/css">
	.st0{fill:#F2692A;}
</style>
<g>
	<g>
		<path class="st0" d="M7.8,13.2c-0.4,0-0.7-0.1-1-0.4c-0.6-0.6-0.6-1.5,0-2l9.2-9.2c0.6-0.6,1.5-0.6,2,0c0.6,0.6,0.6,1.5,0,2
			l-9.2,9.2C8.6,13,8.2,13.2,7.8,13.2z"/>
	</g>
	<g>
		<path class="st0" d="M17.1,22.6c-0.4,0-0.7-0.1-1-0.4L6.8,13c-0.6-0.6-0.6-1.5,0-2c0.6-0.6,1.5-0.6,2,0l9.2,9.2
			c0.6,0.6,0.6,1.5,0,2C17.8,22.5,17.4,22.6,17.1,22.6z"/>
	</g>
</g>
</svg>
