<?xml version="1.0" encoding="utf-8"?>
<!-- Generator: Adobe Illustrator 21.0.0, SVG Export Plug-In . SVG Version: 6.00 Build 0)  -->
<svg version="1.1" id="Capa_1" xmlns="http://www.w3.org/2000/svg" xmlns:xlink="http://www.w3.org/1999/xlink" x="0px" y="0px"
	 viewBox="0 0 24 24" style="enable-background:new 0 0 24 24;" xml:space="preserve">
<style type="text/css">
	.st0{fill:#FFFFFF;}
	.st1{fill:#F2692A;}
</style>
<path class="st0" d="M7.8,16.2c-0.2,0-0.4-0.1-0.5-0.2s-0.2-0.3-0.2-0.5v-7c0-0.2,0.1-0.4,0.2-0.5c0.1-0.1,0.3-0.2,0.5-0.2h2.5
	c0.7,0,1.4,0.2,1.9,0.7s0.8,1,0.8,1.7s-0.2,1.2-0.7,1.7c0.6,0.5,0.9,1.1,0.9,1.8s-0.3,1.3-0.8,1.7c-0.5,0.5-1.1,0.7-1.9,0.7H7.8
	V16.2z M8.4,11.3h1.8c0.3,0,0.6-0.1,0.9-0.3c0.2-0.2,0.4-0.5,0.4-0.8s-0.1-0.5-0.4-0.7c-0.2-0.2-0.5-0.3-0.9-0.3H8.4V11.3z
	 M8.4,14.8h1.9c0.3,0,0.6-0.1,0.9-0.3c0.2-0.2,0.4-0.5,0.4-0.8s-0.1-0.5-0.4-0.7c-0.2-0.2-0.5-0.3-0.9-0.3c0,0,0,0-0.1,0h-0.1H8.4
	V14.8z"/>
<path class="st0" d="M17.8,14.3c0,0.5-0.2,0.9-0.6,1.2S16.4,16,15.9,16c-0.4,0-0.8-0.1-1.2-0.3s-0.7-0.5-0.8-1c0-0.1,0-0.2,0-0.4
	c0.1-0.1,0.2-0.2,0.3-0.2s0.2,0,0.4,0c0.1,0.1,0.2,0.2,0.2,0.3c0,0.2,0.2,0.3,0.4,0.4c0.2,0.1,0.4,0.1,0.7,0.1
	c0.2,0,0.5-0.1,0.6-0.2c0.2-0.2,0.3-0.3,0.3-0.6c0-0.1,0-0.3-0.1-0.4c-0.2-0.2-0.4-0.3-0.8-0.3l0,0l0,0l0,0c-0.6,0-1.1-0.2-1.5-0.6
	c-0.3-0.3-0.4-0.7-0.4-1.1c0-0.5,0.2-0.9,0.6-1.2c0.4-0.3,0.8-0.5,1.3-0.5c0.4,0,0.8,0.1,1.2,0.3c0.4,0.2,0.7,0.5,0.8,1
	c0,0.1,0,0.2-0.1,0.4c-0.1,0.1-0.2,0.2-0.3,0.2c-0.1,0-0.2,0-0.4,0c-0.1-0.1-0.2-0.2-0.2-0.3c0-0.2-0.2-0.3-0.4-0.4
	c-0.2-0.1-0.4-0.1-0.6-0.1c-0.2,0-0.5,0.1-0.6,0.2c-0.2,0.2-0.3,0.3-0.3,0.6c0,0.1,0,0.3,0.1,0.4c0.2,0.2,0.4,0.3,0.8,0.3l0,0
	c0.6,0,1.1,0.2,1.5,0.6C17.6,13.6,17.8,13.9,17.8,14.3z"/>
<path class="st1" d="M0.4,11.7L1,11c0,0,0,0,0,0l6-7.4l0,0c0.3-0.2,0.6-0.4,1-0.4c0.5-0.1,0.9,0.1,1.3,0.4s0.6,0.7,0.6,1.2
	c0,0.4-0.1,0.7-0.2,1l0,0L9.5,6c0,0,0,0,0,0.1c0,0,0,0,0,0L6,10.4h16v0c0.8,0.1,1.5,0.8,1.5,1.7c0,0.9-0.6,1.6-1.5,1.7v0h-0.2
	c0,0-0.1,0-0.1,0s-0.1,0-0.1,0H6.5l2.9,3.6c0,0,0,0,0.1,0.1c0,0,0,0.1,0.1,0.1l0.1,0.1l0,0c0.2,0.3,0.3,0.7,0.2,1
	c0,0.5-0.3,0.9-0.6,1.2c-0.3,0.2-0.7,0.4-1.1,0.4c-0.1,0-0.1,0-0.2,0c-0.4,0-0.7-0.2-1-0.5l0,0l-5.8-7.2l0,0L0.4,11.7z"/>
</svg>
