<?xml version="1.0" encoding="utf-8"?>
<!-- Generator: Adobe Illustrator 21.0.0, SVG Export Plug-In . SVG Version: 6.00 Build 0)  -->
<svg version="1.1" id="Capa_1" xmlns="http://www.w3.org/2000/svg" xmlns:xlink="http://www.w3.org/1999/xlink" x="0px" y="0px"
	 viewBox="0 0 24 24" style="enable-background:new 0 0 24 24;" xml:space="preserve">
<style type="text/css">
	.st0{fill:#F2692A;}
	.st1{fill:#FFFFFF;}
</style>
<circle class="st0" cx="11.9" cy="12.1" r="11.4"/>
<path class="st1" d="M4,12l0.4-0.5l0,0l4.1-5l0,0c0.2-0.1,0.4-0.3,0.7-0.3c0.3-0.1,0.6,0.1,0.9,0.3c0.3,0.2,0.4,0.5,0.4,0.8
	c0,0.3-0.1,0.5-0.1,0.7l0,0l-0.1,0.1c0,0,0,0,0,0.1l0,0l-2.4,2.9h10.8l0,0c0.5,0.1,1,0.5,1,1.2s-0.4,1.1-1,1.2l0,0h-0.1h-0.1h-0.1
	H8.2l2,2.4c0,0,0,0,0.1,0.1c0,0,0,0.1,0.1,0.1l0.1,0.1l0,0c0.1,0.2,0.2,0.5,0.1,0.7c0,0.3-0.2,0.6-0.4,0.8c-0.2,0.1-0.5,0.3-0.7,0.3
	c-0.1,0-0.1,0-0.1,0c-0.3,0-0.5-0.1-0.7-0.3l0,0l-3.9-4.9l0,0L4,12z"/>
</svg>
