<svg id="Capa_1" data-name="Capa 1" xmlns="http://www.w3.org/2000/svg" width="150" height="150" viewBox="0 0 150 150">
  <defs>
    <style>
      .cls-1 {
        fill: #131351;
      }
    </style>
  </defs>
  <title>icono</title>
  <g>
    <path class="cls-1" d="M75,68.7a34.35,34.35,0,1,1,34.35-34.35A34.39,34.39,0,0,1,75,68.7ZM75,8.49a25.86,25.86,0,1,0,25.86,25.86A25.89,25.89,0,0,0,75,8.49Z"/>
    <path class="cls-1" d="M113.89,150H36.11a19,19,0,0,1-19-19V101.31a40.75,40.75,0,0,1,12-29A21.56,21.56,0,0,1,54.94,69a40.5,40.5,0,0,0,40.12,0,21.58,21.58,0,0,1,25.82,3.34,40.75,40.75,0,0,1,12,29V131A19,19,0,0,1,113.89,150ZM44.24,74.63a12.88,12.88,0,0,0-9.11,3.71,32.35,32.35,0,0,0-9.49,23V131a10.48,10.48,0,0,0,10.47,10.47h77.78A10.49,10.49,0,0,0,124.36,131V101.31a32.32,32.32,0,0,0-9.5-23h0a13,13,0,0,0-15.52-2,49.15,49.15,0,0,1-48.68,0A12.74,12.74,0,0,0,44.24,74.63Z"/>
  </g>
</svg>
