<?xml version="1.0" encoding="utf-8"?>
<!-- Generator: Adobe Illustrator 21.0.0, SVG Export Plug-In . SVG Version: 6.00 Build 0)  -->
<svg version="1.1" id="Capa_1" xmlns="http://www.w3.org/2000/svg" xmlns:xlink="http://www.w3.org/1999/xlink" x="0px" y="0px"
	 viewBox="0 0 24 24" style="enable-background:new 0 0 24 24;" xml:space="preserve">
<style type="text/css">
	.st0{fill:#FFFFFF;}
</style>
<g>
	<path class="st0" d="M12.5,22.1C6.9,22.1,2.3,17.6,2.3,12S6.9,1.8,12.5,1.8c5.6,0,10.1,4.5,10.1,10.1S18.1,22.1,12.5,22.1z
		 M12.5,3.8C8,3.8,4.3,7.5,4.3,12c0,4.5,3.7,8.1,8.1,8.1c4.5,0,8.1-3.7,8.1-8.1C20.6,7.5,17,3.8,12.5,3.8z"/>
</g>
<g>
	<g>
		<path class="st0" d="M12.5,17.7c-0.5,0-0.9-0.4-0.9-0.9V7.1c0-0.5,0.4-0.9,0.9-0.9c0.5,0,0.9,0.4,0.9,0.9v9.7
			C13.4,17.3,13,17.7,12.5,17.7z"/>
	</g>
	<g>
		<path class="st0" d="M17.3,12.9H7.6c-0.5,0-0.9-0.4-0.9-0.9c0-0.5,0.4-0.9,0.9-0.9h9.7c0.5,0,0.9,0.4,0.9,0.9
			C18.2,12.5,17.8,12.9,17.3,12.9z"/>
	</g>
</g>
</svg>
