<svg id="Capa_1" data-name="Capa 1" xmlns="http://www.w3.org/2000/svg" width="150" height="150" viewBox="0 0 150 150">
  <defs>
    <style>
      .cls-1 {
        fill: #131351;
      }
    </style>
  </defs>
  <title>icono</title>
  <g>
    <path class="cls-1" d="M119.61,0H30.39A11.89,11.89,0,0,0,18.51,11.88V138.12A11.89,11.89,0,0,0,30.39,150h89.22a11.89,11.89,0,0,0,11.88-11.88V11.88A11.89,11.89,0,0,0,119.61,0ZM50.52,26.35H99.2a4.24,4.24,0,0,0,4.24-4.24h4.88V127.05H41.68V22.11h4.59A4.25,4.25,0,0,0,50.52,26.35ZM95,8.49v9.37H54.76V8.49ZM123,138.12a3.39,3.39,0,0,1-3.39,3.39H30.39A3.39,3.39,0,0,1,27,138.12V11.88a3.39,3.39,0,0,1,3.39-3.39H46.27v5.12H37.43a4.25,4.25,0,0,0-4.24,4.25V131.29a4.24,4.24,0,0,0,4.24,4.25h75.14a4.24,4.24,0,0,0,4.24-4.25V17.86a4.25,4.25,0,0,0-4.24-4.25h-9.13V8.49h16.17A3.39,3.39,0,0,1,123,11.88Z"/>
    <path class="cls-1" d="M74,81.16h2A10.71,10.71,0,1,1,65.31,91.87a4.25,4.25,0,1,0-8.49,0,19.17,19.17,0,0,0,12.92,18v6a4.25,4.25,0,1,0,8.49,0v-5.06A19.15,19.15,0,0,0,76,72.67H74A10.71,10.71,0,1,1,84.69,62a4.25,4.25,0,0,0,8.49,0,19.21,19.21,0,0,0-15-18.69V37.93a4.25,4.25,0,0,0-8.49,0v5.35A19.18,19.18,0,0,0,74,81.16Z"/>
  </g>
</svg>
