<svg xmlns="http://www.w3.org/2000/svg" viewBox="0 0 150 150"><defs><style>.cls-1{fill:#191858;}.cls-2{fill:#fff;}</style></defs><title>Recurso 30</title><g id="Capa_2" data-name="Capa 2"><g id="Capa_1-2" data-name="Capa 1"><circle class="cls-1" cx="75" cy="75" r="75"/><path class="cls-2" d="M86.05,64a1.88,1.88,0,0,0-1.87,1.88v35.41a1.88,1.88,0,0,0,3.75,0V65.86A1.88,1.88,0,0,0,86.05,64Z"/><path class="cls-2" d="M64,64a1.88,1.88,0,0,0-1.88,1.88v35.41a1.88,1.88,0,0,0,3.75,0V65.86A1.88,1.88,0,0,0,64,64Z"/><path class="cls-2" d="M47.83,58.82V105a10.35,10.35,0,0,0,2.75,7.13,9.22,9.22,0,0,0,6.7,2.89H92.72a9.22,9.22,0,0,0,6.7-2.89,10.35,10.35,0,0,0,2.75-7.13V58.82a7.16,7.16,0,0,0-1.84-14.08H90.74V42.4A7.36,7.36,0,0,0,83.32,35H66.68a7.36,7.36,0,0,0-7.42,7.4v2.34H49.67a7.16,7.16,0,0,0-1.84,14.08Zm44.89,52.43H57.28c-3.21,0-5.7-2.75-5.7-6.27V59H98.42v46c0,3.52-2.49,6.27-5.7,6.27ZM63,42.4a3.6,3.6,0,0,1,3.67-3.65H83.32A3.6,3.6,0,0,1,87,42.4v2.34H63ZM49.67,48.49h50.66a3.37,3.37,0,1,1,0,6.74H49.67a3.37,3.37,0,0,1,0-6.74Z"/><path class="cls-2" d="M75,64a1.88,1.88,0,0,0-1.87,1.88v35.41a1.87,1.87,0,0,0,3.74,0V65.86A1.88,1.88,0,0,0,75,64Z"/></g></g></svg>