<svg xmlns="http://www.w3.org/2000/svg" viewBox="0 0 150 150"><defs><style>.cls-1{fill:#464292;}.cls-2{fill:#fff;}</style></defs><title>Recurso 32</title><g id="Capa_2" data-name="Capa 2"><g id="Capa_1-2" data-name="Capa 1"><circle class="cls-1" cx="75" cy="75" r="75"/><path class="cls-2" d="M94.16,114.41H55.84A12.45,12.45,0,0,1,43.4,102V46.35A12.44,12.44,0,0,1,55.84,33.93H94.16A12.44,12.44,0,0,1,106.6,46.35V102A12.45,12.45,0,0,1,94.16,114.41Zm-38.32-75a7,7,0,0,0-7,6.94V102a7,7,0,0,0,7,7H94.16a7,7,0,0,0,7-7V46.35a7,7,0,0,0-7-6.94Z"/><path class="cls-2" d="M93,58.27H57a2.75,2.75,0,0,1,0-5.49H93a2.75,2.75,0,0,1,0,5.49Z"/><path class="cls-2" d="M93,71H57a2.74,2.74,0,1,1,0-5.48H93A2.74,2.74,0,1,1,93,71Z"/><path class="cls-2" d="M93,83.64H57a2.74,2.74,0,1,1,0-5.48H93a2.74,2.74,0,0,1,0,5.48Z"/><path class="cls-2" d="M93,96.33H57a2.74,2.74,0,0,1,0-5.48H93a2.74,2.74,0,0,1,0,5.48Z"/></g></g></svg>