<svg xmlns="http://www.w3.org/2000/svg" viewBox="0 0 150 150"><defs><style>.cls-1{fill:#131351;}.cls-2{fill:#fff;}</style></defs><title>Recurso 25</title><g id="Capa_2" data-name="Capa 2"><g id="Capa_1-2" data-name="Capa 1"><circle class="cls-1" cx="75" cy="75" r="75"/><path class="cls-2" d="M109.06,42.23H40.94a8.45,8.45,0,0,0-8.44,8.44V99.33a8.45,8.45,0,0,0,8.44,8.44h68.12a8.45,8.45,0,0,0,8.44-8.44V50.67A8.45,8.45,0,0,0,109.06,42.23ZM75,81.85,41,47.23H109ZM61.26,75,37.5,99.16V50.84Zm3.5,3.57L75,89,85.24,78.57,109,102.77H41Zm24-3.57L112.5,50.83V99.17Z"/></g></g></svg>