<svg id="Capa_1" data-name="Capa 1" xmlns="http://www.w3.org/2000/svg" width="150" height="150" viewBox="0 0 150 150">
  <defs>
    <style>
      .cls-1 {
        fill: #131351;
      }
    </style>
  </defs>
  <title>icono</title>
  <path class="cls-1" d="M136,147.91H14a14,14,0,0,1-14-14V77a13.9,13.9,0,0,1,4.1-9.9l61-61a14.36,14.36,0,0,1,19.8,0l61,61A13.92,13.92,0,0,1,150,77v57A14,14,0,0,1,136,147.91ZM75,10.44a5.49,5.49,0,0,0-3.9,1.62l-61,61A5.43,5.43,0,0,0,8.49,77v57A5.51,5.51,0,0,0,14,139.42H136a5.51,5.51,0,0,0,5.51-5.51V77a5.47,5.47,0,0,0-1.62-3.89l-61-61A5.43,5.43,0,0,0,75,10.44Z"/>
</svg>
