<?xml version="1.0" encoding="utf-8"?>
<!-- Generator: Adobe Illustrator 21.0.0, SVG Export Plug-In . SVG Version: 6.00 Build 0)  -->
<svg version="1.1" id="Capa_1" xmlns="http://www.w3.org/2000/svg" xmlns:xlink="http://www.w3.org/1999/xlink" x="0px" y="0px"
	 viewBox="0 0 24 24" style="enable-background:new 0 0 24 24;" xml:space="preserve">
<style type="text/css">
	.st0{fill:#FFFFFF;}
</style>
<g>
	<g>
		<path class="st0" d="M12,22.5c-0.8,0-1.5-0.7-1.5-1.5V8.9c0-0.8,0.7-1.5,1.5-1.5c0.8,0,1.5,0.7,1.5,1.5v12.2
			C13.5,21.9,12.8,22.5,12,22.5z"/>
	</g>
	<g>
		<circle class="st0" cx="12" cy="3.9" r="2"/>
		<path class="st0" d="M12,6c-1.2,0-2.1-1-2.1-2.1s1-2.1,2.1-2.1s2.1,1,2.1,2.1S13.2,6,12,6z M12,2.1c-1,0-1.8,0.8-1.8,1.8
			c0,1,0.8,1.8,1.8,1.8c1,0,1.8-0.8,1.8-1.8C13.8,2.9,13,2.1,12,2.1z"/>
	</g>
</g>
</svg>
