<svg xmlns="http://www.w3.org/2000/svg" viewBox="0 0 150 150"><defs><style>.cls-1{fill:#35327c;}.cls-2{fill:#fff;}</style></defs><title>Recurso 28</title><g id="Capa_2" data-name="Capa 2"><g id="Capa_1-2" data-name="Capa 1"><circle class="cls-1" cx="75" cy="75" r="75"/><path class="cls-2" d="M111.73,48.7,95.33,32.46a3,3,0,0,0-2.11-.87h-34A14,14,0,0,0,45.28,45.53v58.12a14,14,0,0,0,13.95,13.94H98.68a14,14,0,0,0,13.94-13.94V50.84A3,3,0,0,0,111.73,48.7ZM96.22,41.78l6.12,6.06H96.22Zm2.46,69.81H59.23a8,8,0,0,1-7.95-7.94V45.53a8,8,0,0,1,7.95-7.94h31V50.84a3,3,0,0,0,3,3h13.41v49.82A8,8,0,0,1,98.68,111.59Z"/><path class="cls-2" d="M79.46,72.13H78.4a4.84,4.84,0,1,1,4.83-4.84,3,3,0,0,0,6,0,10.82,10.82,0,0,0-7.84-10.36V54.68a3,3,0,0,0-6,0v2.25a10.81,10.81,0,0,0,3,21.2h1.06A4.84,4.84,0,1,1,74.62,83a3,3,0,0,0-6,0A10.83,10.83,0,0,0,75.4,93v2.58a3,3,0,1,0,6,0v-2a10.83,10.83,0,0,0-1.93-21.48Z"/></g></g></svg>