<svg xmlns="http://www.w3.org/2000/svg" viewBox="0 0 150 150"><defs><style>.cls-1{fill:#fff;}.cls-2{fill:none;}</style></defs><title>Recurso 1</title><g id="Capa_2" data-name="Capa 2"><g id="Capa_1-2" data-name="Capa 1"><path class="cls-1" d="M75,142.13A55.56,55.56,0,0,1,60.76,32.88a4.49,4.49,0,0,1,2.3,8.69,46.57,46.57,0,1,0,24.45.16,4.5,4.5,0,0,1,2.42-8.66A55.55,55.55,0,0,1,75,142.13Z"/><path class="cls-1" d="M75,67.82a4.49,4.49,0,0,1-4.49-4.49v-51a4.49,4.49,0,0,1,9,0v51A4.49,4.49,0,0,1,75,67.82Z"/><rect class="cls-2" width="150" height="150"/></g></g></svg>