<?xml version="1.0" encoding="utf-8"?>
<!-- Generator: Adobe Illustrator 21.0.0, SVG Export Plug-In . SVG Version: 6.00 Build 0)  -->
<svg version="1.1" id="Capa_1" xmlns="http://www.w3.org/2000/svg" xmlns:xlink="http://www.w3.org/1999/xlink" x="0px" y="0px"
	 viewBox="0 0 799.5 137" style="enable-background:new 0 0 799.5 137;" xml:space="preserve">
<style type="text/css">
	.st0{fill:#EDEEF0;}
</style>
<title>Recurso 4</title>
<path class="st0" d="M799.5,107.9V29.6h0V6.7c-2.9,12.6-13.5,21.7-26.2,22.9H30.8c-3.9,0-7.6,0-11,0.1c-0.8,0-1.5,0-2.2,0.1
	c0,0,0,0,0,0C7.7,30.8,0,39.1,0,49.3V88c0,9,6.1,16.6,14.3,18.9c1.8,0.3,3.8,0.5,5.8,0.7c3.3,0.3,6.9,0.3,10.7,0.4h742.4
	c12.8,1.1,23.5,10.3,26.4,22.9v-23H799.5z"/>
</svg>
