<?xml version="1.0" encoding="utf-8"?>
<!-- Generator: Adobe Illustrator 21.0.0, SVG Export Plug-In . SVG Version: 6.00 Build 0)  -->
<svg version="1.1" id="Capa_1" xmlns="http://www.w3.org/2000/svg" xmlns:xlink="http://www.w3.org/1999/xlink" x="0px" y="0px"
	 viewBox="0 0 24 24" style="enable-background:new 0 0 24 24;" xml:space="preserve">
<style type="text/css">
	.st0{fill:#232122;}
	.st1{fill:#FFFFFF;}
</style>
<circle class="st0" cx="11.9" cy="11.8" r="11.6"/>
<path class="st1" d="M19.9,12.5L19.9,12.5l-4.3,5.3l0,0c-0.2,0.2-0.4,0.4-0.7,0.4c-0.1,0-0.1,0-0.1,0c-0.3,0-0.6-0.1-0.8-0.3
	c-0.2-0.2-0.4-0.5-0.4-0.9c-0.1-0.2,0-0.5,0.1-0.7l0,0l0.1-0.1c0.1,0,0.1-0.1,0.1-0.1c0.1-0.1,0.1-0.1,0.1-0.1l2.2-2.7H4.7H4.6H4.6
	H4.4l0,0c-0.7-0.1-1.1-0.6-1.1-1.3s0.5-1.2,1.1-1.3l0,0h11.9l-2.6-3.2l0,0c0-0.1,0-0.1,0-0.1l-0.1-0.1l0,0c-0.1-0.2-0.1-0.4-0.1-0.7
	c0-0.4,0.1-0.7,0.4-0.9s0.6-0.4,1-0.3c0.3,0,0.5,0.1,0.7,0.3l0,0l4.5,5.5l0,0l0.4,0.5L19.9,12.5z"/>
</svg>
