<?xml version="1.0" encoding="utf-8"?>
<!-- Generator: Adobe Illustrator 21.0.0, SVG Export Plug-In . SVG Version: 6.00 Build 0)  -->
<svg version="1.1" id="Capa_1" xmlns="http://www.w3.org/2000/svg" xmlns:xlink="http://www.w3.org/1999/xlink" x="0px" y="0px"
	 viewBox="0 0 24 24" style="enable-background:new 0 0 24 24;" xml:space="preserve">
<style type="text/css">
	.st0{fill:#F2692A;}
</style>
<g>
	<path class="st0" d="M22.5,22.3L22.5,22.3C22.5,22.3,22.5,22.3,22.5,22.3L22.5,22.3L22.5,22.3c0-3-0.8-5.2-2.2-6.7
		c-1.6-1.6-3.6-1.7-4-1.7c0,0,0,0,0,0h-3.9h-0.5H7.9c-0.3,0-2.3,0.1-4,1.7c-1.5,1.5-2.2,3.7-2.2,6.6h0v0.9h0.4v0h20.1v0h0.3V22.3z"
		/>
	<ellipse class="st0" cx="12.1" cy="6.7" rx="5.8" ry="6.2"/>
</g>
</svg>
