<svg xmlns="http://www.w3.org/2000/svg" viewBox="0 0 150 150"><defs><style>.cls-1{fill:#131351;}.cls-2{fill:#fff;}</style></defs><g id="Capa_2" data-name="Capa 2"><g id="Capa_1-2" data-name="Capa 1"><circle class="cls-1" cx="75" cy="75" r="75"/><path class="cls-2" d="M94.16,115.24H55.84A12.44,12.44,0,0,1,43.4,102.81V47.19A12.44,12.44,0,0,1,55.84,34.76H94.16A12.44,12.44,0,0,1,106.6,47.19v55.62A12.44,12.44,0,0,1,94.16,115.24Zm-38.32-75a7,7,0,0,0-7,6.95v55.62a7,7,0,0,0,7,7H94.16a7,7,0,0,0,7-7V47.19a7,7,0,0,0-7-6.95Z"/><path class="cls-2" d="M57.8,97.06a5.13,5.13,0,0,1-2.26-.48,4.67,4.67,0,0,1-2.9-3.82c-.11-2.06,1.37-4.05,4.52-6.09a58.79,58.79,0,0,1,10.93-4.82A75.54,75.54,0,0,0,72,71.56c-4.16-4.83-5.94-11.25-4.13-15.3a5.44,5.44,0,0,1,5.36-3.34,4.56,4.56,0,0,1,4,2.61c1.58,3.09.88,8.92-.77,15a90.19,90.19,0,0,0,7.31,6.81c.92-.2,1.77-.37,2.53-.5,4.42-.75,7.39-.34,9.08,1.24a4.54,4.54,0,0,1,1.35,3.88,4.76,4.76,0,0,1-2.92,3.71,7.25,7.25,0,0,1-7.19-1.12l-.13-.09c-1.16-.85-2.38-1.73-3.72-2.79-3.53.85-7.83,2.1-11.86,3.46a35.54,35.54,0,0,1-2.06,3.61C64.16,95.68,60.2,97.06,57.8,97.06Zm-1.16-4.51a3.91,3.91,0,0,0,.68.45c.58.29,3.51.1,7.65-5.71A36.42,36.42,0,0,0,59.33,90c-2.53,1.64-2.69,2.52-2.69,2.52ZM88,80.59l.83.6.12.09a3.27,3.27,0,0,0,3.11.73,1.14,1.14,0,0,0,.68-.52c0-.38-.07-.48-.12-.53S91.63,80.12,88,80.59ZM75.15,74.83c-.62,1.84-1.3,3.65-2,5.34,2-.62,4-1.2,5.85-1.7C77.83,77.42,76.55,76.23,75.15,74.83ZM73,56.92a1.45,1.45,0,0,0-1.49,1c-.73,1.65-.35,5.17,1.79,8.7.91-4.15,1.19-7.66.38-9.24-.21-.4-.36-.42-.59-.43H73Z"/></g></g></svg>