<?xml version="1.0" encoding="utf-8"?>
<!-- Generator: Adobe Illustrator 21.0.0, SVG Export Plug-In . SVG Version: 6.00 Build 0)  -->
<svg version="1.1" id="Capa_1" xmlns="http://www.w3.org/2000/svg" xmlns:xlink="http://www.w3.org/1999/xlink" x="0px" y="0px"
	 viewBox="0 0 24 24" style="enable-background:new 0 0 24 24;" xml:space="preserve">
<style type="text/css">
	.st0{fill:#3C3C3C;}
</style>
<g>
	<g>
		<path class="st0" d="M20.3,22.6c-0.5,0-1.1-0.2-1.5-0.6L2.4,5.5c-0.8-0.8-0.8-2.2,0-3c0.8-0.8,2.2-0.8,3,0L21.8,19
			c0.8,0.8,0.8,2.2,0,3C21.3,22.4,20.8,22.6,20.3,22.6z"/>
	</g>
	<g>
		<path class="st0" d="M3.9,22.6c-0.5,0-1.1-0.2-1.5-0.6c-0.8-0.8-0.8-2.2,0-3L18.8,2.6c0.8-0.8,2.2-0.8,3,0c0.8,0.8,0.8,2.2,0,3
			L5.4,21.9C4.9,22.4,4.4,22.6,3.9,22.6z"/>
	</g>
</g>
</svg>
