<svg id="Capa_1" data-name="Capa 1" xmlns="http://www.w3.org/2000/svg" width="150" height="150" viewBox="0 0 150 150">
  <defs>
    <style>
      .cls-1 {
        fill: #131351;
      }
    </style>
  </defs>
  <title>icono</title>
  <g>
    <path class="cls-1" d="M86.82,45.35a31.92,31.92,0,1,0,17.83,41.46A31.72,31.72,0,0,0,86.82,45.35Zm10.6,38.59A24.14,24.14,0,1,1,75,50.86,24.16,24.16,0,0,1,97.42,83.94Z"/>
    <path class="cls-1" d="M148.15,87.24,134.77,79l0-.81a59.69,59.69,0,0,0-.09-8l-.07-.8,13.15-8.59a3.87,3.87,0,0,0,1.65-4.19,76.84,76.84,0,0,0-9.88-23,3.89,3.89,0,0,0-4.18-1.69l-15.27,3.64-.55-.6a58.41,58.41,0,0,0-5.75-5.59l-.62-.52,3.23-15.37a3.9,3.9,0,0,0-1.8-4.14A77.52,77.52,0,0,0,103.42,3.7a76.87,76.87,0,0,0-12-3.61,3.93,3.93,0,0,0-4.15,1.76L79,15.23l-.81,0a59.67,59.67,0,0,0-8,.09l-.8.07L60.79,2.2A3.91,3.91,0,0,0,56.6.54a77,77,0,0,0-23,9.89,3.9,3.9,0,0,0-1.69,4.18l3.64,15.28-.6.54a57.26,57.26,0,0,0-5.58,5.75l-.53.62L13.49,33.57a3.89,3.89,0,0,0-4.14,1.8A71.78,71.78,0,0,0,.09,58.6a3.91,3.91,0,0,0,1.76,4.15L15.23,71l-.05.81a61.09,61.09,0,0,0,.1,8l.07.81L2.2,89.21A3.88,3.88,0,0,0,.55,93.4a67.1,67.1,0,0,0,7.37,18.74c3.46,5.72,4,6.58,11.2,4.85l10.76-2.56.55.6a58.34,58.34,0,0,0,5.75,5.59l.62.52L34.41,132.5c-.07.41-.19.86-.3,1.33-.64,2.66-1.2,4.95,3.8,8.29a71.43,71.43,0,0,0,8.67,4.18,77.2,77.2,0,0,0,12,3.61,3.94,3.94,0,0,0,4.15-1.76L71,134.77l.82,0a61.3,61.3,0,0,0,8-.09l.81-.07,8.58,13.15a4,4,0,0,0,4.19,1.66,77,77,0,0,0,23-9.89,3.9,3.9,0,0,0,1.69-4.18l-3.64-15.28.6-.54a60.91,60.91,0,0,0,5.59-5.75l.52-.62,15.37,3.23a3.87,3.87,0,0,0,4.14-1.8,76.52,76.52,0,0,0,5.65-11.21,77.73,77.73,0,0,0,3.61-12A3.91,3.91,0,0,0,148.15,87.24Zm-6.73,6.14a61.39,61.39,0,0,1-2.35,7.16,62.67,62.67,0,0,1-3.22,6.8l-.48.9-15-3.15a3.88,3.88,0,0,0-3.9,1.45,52.18,52.18,0,0,1-8.83,9.1,3.89,3.89,0,0,0-1.35,3.94l3.54,14.88-.89.5a69.45,69.45,0,0,1-13.78,5.93l-1,.3-8.37-12.81A3.89,3.89,0,0,0,82,126.65a50.72,50.72,0,0,1-12.68.15,4,4,0,0,0-3.74,1.83l-8,13.05-1-.26a60.7,60.7,0,0,1-14-5.57l-.89-.48,3.15-15a3.91,3.91,0,0,0-1.45-3.9,51.84,51.84,0,0,1-9.1-8.83,3.93,3.93,0,0,0-3.94-1.36l-14.88,3.56L15,109A68.55,68.55,0,0,1,9.11,95.16l-.3-1,12.81-8.36A3.91,3.91,0,0,0,23.35,82a52.22,52.22,0,0,1-.16-12.69,3.89,3.89,0,0,0-1.83-3.73l-13-8,.26-1a62.45,62.45,0,0,1,2.35-7.15,61.8,61.8,0,0,1,3.22-6.8l.48-.9,15,3.14a3.85,3.85,0,0,0,3.89-1.44,51.86,51.86,0,0,1,8.84-9.1,3.89,3.89,0,0,0,1.35-3.94L40.16,15.54l.89-.5A68.46,68.46,0,0,1,54.83,9.11l1-.3,8.37,12.81A3.87,3.87,0,0,0,68,23.35a51.58,51.58,0,0,1,12.67-.16,4,4,0,0,0,3.74-1.82l8-13,1,.26a64.48,64.48,0,0,1,7.15,2.35,62.65,62.65,0,0,1,6.8,3.21l.89.49-3.14,15a3.91,3.91,0,0,0,1.45,3.9,51.83,51.83,0,0,1,9.1,8.83,3.92,3.92,0,0,0,3.94,1.35l14.88-3.55.51.9a69.92,69.92,0,0,1,5.92,13.78l.3,1-12.81,8.37A3.9,3.9,0,0,0,126.65,68a52.17,52.17,0,0,1,.16,12.68,3.88,3.88,0,0,0,1.83,3.74l13,8Z"/>
  </g>
</svg>
