<?xml version="1.0" encoding="utf-8"?>
<!-- Generator: Adobe Illustrator 21.0.0, SVG Export Plug-In . SVG Version: 6.00 Build 0)  -->
<svg version="1.1" id="Capa_1" xmlns="http://www.w3.org/2000/svg" xmlns:xlink="http://www.w3.org/1999/xlink" x="0px" y="0px"
	 viewBox="0 0 24 24" style="enable-background:new 0 0 24 24;" xml:space="preserve">
<style type="text/css">
	.st0{fill:#F2692A;}
</style>
<g>
	<path class="st0" d="M14.1,3.9V2.5h1.4V0.6H9.6v1.9H11v1.4c-4.7,0.6-8.3,4.6-8.3,9.5c0,5.3,4.3,9.6,9.6,9.6s9.6-4.3,9.6-9.6
		C21.8,8.7,18.5,4.8,14.1,3.9z M12.2,20.7c-4,0-7.3-3.3-7.3-7.3s3.3-7.3,7.3-7.3s7.3,3.3,7.3,7.3C19.6,17.4,16.3,20.7,12.2,20.7z"/>
	<path class="st0" d="M12.2,7.4c-3.2,0-5.8,2.7-5.8,5.9c0,3.3,2.7,5.9,5.9,5.9c2.1,0,3.9-1,4.9-2.6l-5-3.3
		C12.2,13.3,12.2,7.4,12.2,7.4z"/>
</g>
</svg>
