<svg xmlns="http://www.w3.org/2000/svg" viewBox="0 0 150 150"><defs><style>.cls-1{fill:#403d8b;}.cls-2{fill:#fff;}</style></defs><title>Recurso 29</title><g id="Capa_2" data-name="Capa 2"><g id="Capa_1-2" data-name="Capa 1"><circle class="cls-1" cx="75" cy="75" r="75"/><path class="cls-2" d="M113.67,97.84,101.75,51.05a3,3,0,0,0-2.9-2.26H85.43a12.17,12.17,0,1,0-20.85,0H51.15a3,3,0,0,0-2.9,2.26L36.32,97.84a3,3,0,0,0,.22,2.07l4.87,9.87a3,3,0,0,0,2.69,1.67h61.8a3,3,0,0,0,2.69-1.67l4.87-9.87A3,3,0,0,0,113.67,97.84ZM68.83,42.62A6.17,6.17,0,1,1,75,48.79,6.18,6.18,0,0,1,68.83,42.62ZM104,105.46H46l-3.56-7.21L53.48,54.79h43l11.08,43.46Z"/></g></g></svg>